<svg width="107" height="120" viewBox="0 0 107 120" fill="none" xmlns="http://www.w3.org/2000/svg">
<path d="M103.5 47.7L96.9 48.4L94.9 35.4H69.6999V60.7H99.5999V67.1H69.6999V87.6H81.1999V94H54.2V87.6H62.4V35.4H54.2V29H101.4L103.5 47.7Z" fill="#F8FAFC"/>
<path d="M0.5 61.4C0.5 70.9333 3.43333 78.7667 9.3 84.9C15.1 90.9667 23.1333 94 33.4 94H62.8V87.7H54.6V35.3H62.8V29H33.7C23.1 29 14.9333 32.0667 9.2 38.2C3.4 44.2667 0.5 52 0.5 61.4ZM8.3 61.5C8.3 53.6333 10.5 47.3 14.9 42.5C19.2333 37.7 25.5333 35.3 33.8 35.3H47.3V87.7H33.8C25.5333 87.7 19.2333 85.3667 14.9 80.7C10.5 75.9667 8.3 69.5667 8.3 61.5Z" fill="#F8FAFC"/>
</svg>
